<?xml version="1.0" encoding="UTF-8"?>
<svg xmlns="http://www.w3.org/2000/svg" viewBox="0 0 478 238" role="img" aria-labelledby="agodaTitle">
  <title id="agodaTitle">Agoda logo</title>
  <rect width="478" height="238" fill="#dcdcdc"/>
  <g fill="#6c6c6c" transform="translate(50,35)">
    <path d="M53 89c0-15-11-27-26-27S1 74 1 89s11 27 26 27c9 0 17-4 21-11v5c0 4 3 7 7 7s7-3 7-7V89zM27 103c-8 0-14-6-14-14s6-14 14-14 14 6 14 14-6 14-14 14z"/>
    <path d="M146 89c0-15-11-27-26-27s-26 12-26 27 11 27 26 27c9 0 17-4 21-11v8c0 10-8 17-21 17-8 0-14-2-19-5-3-2-7-1-9 2s-1 7 2 9c7 4 16 7 26 7 21 0 35-12 35-30V89h-9zM120 103c-8 0-14-6-14-14s6-14 14-14 14 6 14 14-6 14-14 14z"/>
    <path d="M228 89c0-15-11-27-26-27s-26 12-26 27 11 27 26 27 26-12 26-27zm-26 14c-8 0-14-6-14-14s6-14 14-14 14 6 14 14-6 14-14 14z"/>
    <path d="M322 53c0-4-3-7-7-7s-7 3-7 7v26c-4-10-13-17-25-17-15 0-26 12-26 27s11 27 26 27c9 0 17-4 21-11v5c0 4 3 7 7 7s7-3 7-7V53zm-39 50c-8 0-14-6-14-14s6-14 14-14 14 6 14 14-6 14-14 14z"/>
    <path d="M413 89c0-15-11-27-26-27s-26 12-26 27 11 27 26 27 26-12 26-27zm-26 14c-8 0-14-6-14-14s6-14 14-14 14 6 14 14-6 14-14 14z"/>
  </g>
  <circle cx="102" cy="176" r="24" fill="#ec1f2f"/>
  <circle cx="169" cy="176" r="24" fill="#f9b900"/>
  <circle cx="236" cy="176" r="24" fill="#07a845"/>
  <circle cx="303" cy="176" r="24" fill="#a64095"/>
  <circle cx="370" cy="176" r="24" fill="#2d9dcf"/>
</svg>
